<svg xmlns="http://www.w3.org/2000/svg" viewBox="0 0 500 500"><g id="freepik--background-complete--inject-2"><path d="M462.4,249.3s10.13.57,6.29,23S461,306.35,461,306.35s-.36,5,3.64,4.55,11.89-4.4,15-.3,1.17,9.85-4.65,16-18.09,20.13-19.19,21.4-1.78,3.75,1,3.86,22.08-3.77,23.37,5.51-17.75,23.78-19.8,25.4-2.3,2.79-1.71,4,7-.69,12.49-1.57,12.11-.92,12.41,4.49-9.14,19.91-39.09,32.56l-14.26,5-11.63-9.72c-23.62-22.34-27.38-39.23-25.21-44.19s8.32-2.62,13.2.14,10.17,6.78,11.15,5.84,1.15-2.11-.2-4.35-14.11-22.5-9.65-30.73,21.18,2.16,23.82,3,2.86-1.72,2.28-3.26-7.18-19-10.48-26.77-3.27-13.79,1.25-16.63c4.36-2.75,10.39,3.69,14,5.53s5-3,5-3,.49-12.3,4.74-34.62,14.16-19.19,14.16-19.19" style="fill:#ebebeb"></path><path d="M430.53,430.86c3.06-16.41,8-45.65,12.36-70.74s8.34-47.78,11.31-64.19c1.49-8.2,2.7-14.83,3.54-19.44.41-2.28.74-4.06,1-5.29.1-.59.18-1.05.24-1.37s.06-.48.06-.48-.05.16-.11.47-.16.78-.28,1.37c-.25,1.22-.6,3-1.05,5.27-.9,4.57-2.16,11.21-3.68,19.41-3.06,16.4-7.08,39.09-11.45,64.17s-9.25,54.34-12.22,70.76" style="fill:#e0e0e0"></path><path d="M468.83,316.52a5.47,5.47,0,0,0-.92.59c-.57.41-1.38,1-2.38,1.78-2,1.52-4.69,3.7-7.62,6.15l-7.49,6.32-2.27,1.9a5.3,5.3,0,0,0-.82.73,5.74,5.74,0,0,0,.93-.59c.57-.4,1.38-1,2.37-1.78,2-1.55,4.65-3.76,7.58-6.22l7.52-6.25,2.29-1.89A4.61,4.61,0,0,0,468.83,316.52Z" style="fill:#e0e0e0"></path><path d="M446.06,333.37c.11-.08-4.14-5.83-9.47-12.85s-9.75-12.66-9.85-12.58,4.14,5.84,9.48,12.86S446,333.45,446.06,333.37Z" style="fill:#e0e0e0"></path><path d="M441.09,372.19a5.77,5.77,0,0,0-.86-.7l-2.43-1.81c-2.06-1.52-4.88-3.64-7.91-6.09s-5.71-4.76-7.64-6.44l-2.27-2a4.12,4.12,0,0,0-.88-.69,6,6,0,0,0,.75.82c.51.51,1.25,1.24,2.18,2.11,1.87,1.75,4.52,4.11,7.56,6.56s5.91,4.54,8,6c1.06.73,1.92,1.3,2.53,1.69A4.68,4.68,0,0,0,441.09,372.19Z" style="fill:#e0e0e0"></path><path d="M465,361.48a4.49,4.49,0,0,0-1,.33l-2.6,1c-2.19.9-5.19,2.17-8.51,3.6s-6.3,2.75-8.45,3.73L442,371.35a5.32,5.32,0,0,0-.91.49,4.06,4.06,0,0,0,1-.32l2.6-1c2.19-.9,5.2-2.17,8.51-3.6s6.3-2.75,8.45-3.73l2.54-1.18A4,4,0,0,0,465,361.48Z" style="fill:#e0e0e0"></path><path d="M465,396.31a6.36,6.36,0,0,0-1.25.43l-3.34,1.32c-2.81,1.14-6.68,2.74-10.94,4.53s-8.11,3.44-10.89,4.65l-3.28,1.46a7.6,7.6,0,0,0-1.18.6,7.35,7.35,0,0,0,1.25-.43l3.34-1.32c2.81-1.14,6.68-2.74,10.94-4.53s8.11-3.44,10.89-4.65l3.28-1.46A7.6,7.6,0,0,0,465,396.31Z" style="fill:#e0e0e0"></path><path d="M434.79,408.78a8.57,8.57,0,0,0-1.07-.92l-3-2.4c-2.53-2-6-4.84-9.78-8.06s-7.11-6.2-9.5-8.38l-2.85-2.59a8.15,8.15,0,0,0-1.08-.91,8.9,8.9,0,0,0,1,1c.63.65,1.57,1.58,2.74,2.7,2.34,2.25,5.65,5.29,9.42,8.5s7.3,6,9.89,8c1.3,1,2.35,1.76,3.1,2.28A8.33,8.33,0,0,0,434.79,408.78Z" style="fill:#e0e0e0"></path><path d="M108.15,109.65c-1.09-5.38,2.3-10.49,8.18-11.68a9.89,9.89,0,1,1,3.92,19.39A10,10,0,0,1,108.15,109.65Zm-15-78.84,18.51-3.74,8.7,59.16L108,88.73Z" style="fill:#ebebeb"></path><path d="M124.58,117.54a12.66,12.66,0,0,1-13.14-.1,11.53,11.53,0,0,1-5-7.44c-1.3-6.47,2.8-12.38,9.56-13.75a11.46,11.46,0,0,1,13.9,9,11.65,11.65,0,0,1-1.65,8.77A11.33,11.33,0,0,1,124.58,117.54Zm-11-16.67a7.88,7.88,0,0,0-3.76,8.43,8,8,0,0,0,3.49,5.19,8.72,8.72,0,0,0,6.54,1.15,8.39,8.39,0,0,0,5.4-3.54,8.16,8.16,0,0,0,1.13-6.14,8,8,0,0,0-9.75-6.26A9.54,9.54,0,0,0,113.63,100.87Zm7.62-13.14a1.6,1.6,0,0,1-.56.22l-12.39,2.5a1.75,1.75,0,0,1-2-1.28L91.43,31.25a1.78,1.78,0,0,1,.21-1.37,1.75,1.75,0,0,1,1.14-.79l18.51-3.74a1.75,1.75,0,0,1,2.09,1.47L122.08,86A1.75,1.75,0,0,1,121.25,87.73Zm-12-1,9.12-1.84-8.19-55.68-14.88,3Z" style="fill:#ebebeb"></path><path d="M144.58,102.9a5.34,5.34,0,0,1,7.2-2.78,5.26,5.26,0,0,1,3,7,5.32,5.32,0,0,1-7.1,2.9A5.4,5.4,0,0,1,144.58,102.9Zm17-40,9.46,3.9L157.13,96l-6.33-2.61Z" style="fill:#ebebeb"></path><path d="M149.59,111.41a6.55,6.55,0,0,1-2.26-.51,6.65,6.65,0,0,1-3.62-3.5,6.3,6.3,0,0,1,8.44-8.16,6.19,6.19,0,0,1,3.53,8.24,6.23,6.23,0,0,1-6.09,3.93Zm.1-10.81a4.28,4.28,0,0,0-4.23,2.66,4.34,4.34,0,0,0,0,3.39,4.74,4.74,0,0,0,2.6,2.49,4.52,4.52,0,0,0,3.5,0,4.44,4.44,0,0,0,2.36-2.42,4.34,4.34,0,0,0-2.5-5.76A5.23,5.23,0,0,0,149.69,100.6Zm7.4-3.61a.88.88,0,0,1-.32-.07l-6.33-2.61a1,1,0,0,1-.53-1.2l10.8-30.54A1,1,0,0,1,162,62l9.46,3.9a1,1,0,0,1,.53.54,1,1,0,0,1,0,.75L158,96.45A.94.94,0,0,1,157.09,97ZM152,92.89l4.66,1.93,13.12-27.53-7.61-3.14Z" style="fill:#ebebeb"></path></g><g id="freepik--Screen--inject-2"><path d="M65.46,132.4H414.54a17.92,17.92,0,0,1,17.92,17.92v283.2a0,0,0,0,1,0,0H47.54a0,0,0,0,1,0,0V150.31A17.92,17.92,0,0,1,65.46,132.4Z" style="fill:#fafafa"></path><path d="M377.35,361.7c0,.15-62.1.27-138.69.27S100,361.85,100,361.7s62.08-.26,138.7-.26S377.35,361.56,377.35,361.7Z" style="fill:#263238"></path><path d="M351.87,379c0,.14-47.46.26-106,.26s-106-.12-106-.26,47.45-.27,106-.27S351.87,378.82,351.87,379Z" style="fill:#263238"></path><rect x="47.54" y="132.4" width="384.91" height="116.77" style="fill:#EE2B16"></rect><path d="M433,434H47V131.9H433ZM48,433H432V132.9H48Z" style="fill:#263238"></path><path d="M206.75,286.5l-8.65,26.41h-6.56L185.73,295l-6,17.88H173.2l-8.68-26.41h6.34l6,18.57,6.23-18.57h5.66l6,18.72,6.15-18.72Z" style="fill:#263238"></path><path d="M226.19,301.33v11.58h-5.51v-2.52c-1.1,1.84-3.21,2.83-6.19,2.83-4.76,0-7.59-2.65-7.59-6.15s2.53-6.08,8.72-6.08h4.68c0-2.53-1.51-4-4.68-4a9.76,9.76,0,0,0-5.85,1.89l-2.11-4.12a15.63,15.63,0,0,1,8.75-2.45C222.6,292.31,226.19,295.18,226.19,301.33Zm-5.89,5.17v-2.08h-4c-2.75,0-3.62,1-3.62,2.38s1.24,2.45,3.32,2.45A4.34,4.34,0,0,0,220.3,306.5Z" style="fill:#263238"></path><path d="M244.11,292.31v5.43c-.49,0-.87-.07-1.32-.07-3.24,0-5.39,1.77-5.39,5.66v9.58h-5.89v-20.3h5.62v2.68C238.57,293.33,241,292.31,244.11,292.31Z" style="fill:#263238"></path><path d="M268.38,301.29v11.62h-5.89V302.2c0-3.29-1.51-4.79-4.11-4.79-2.83,0-4.87,1.73-4.87,5.47v10h-5.89v-20.3h5.63V295a8.86,8.86,0,0,1,6.71-2.68C264.76,292.31,268.38,295.1,268.38,301.29Z" style="fill:#263238"></path><path d="M273,286.5a3.37,3.37,0,0,1,3.67-3.28c2.18,0,3.66,1.36,3.66,3.17a3.68,3.68,0,0,1-7.33.11Zm.72,6.11h5.89v20.3H273.7Z" style="fill:#263238"></path><path d="M305.82,301.29v11.62h-5.89V302.2c0-3.29-1.51-4.79-4.11-4.79-2.83,0-4.87,1.73-4.87,5.47v10h-5.89v-20.3h5.62V295a8.9,8.9,0,0,1,6.72-2.68C302.19,292.31,305.82,295.1,305.82,301.29Z" style="fill:#263238"></path><path d="M332.31,292.61v16.91c0,7.54-4.08,11-11.4,11-3.85,0-7.58-1-10-2.8l2.34-4.22a12.19,12.19,0,0,0,7.17,2.3c4.15,0,6-1.89,6-5.55v-.87a8.35,8.35,0,0,1-6.41,2.53c-5.63,0-10.15-3.88-10.15-9.81s4.52-9.81,10.15-9.81a8.11,8.11,0,0,1,6.71,2.91v-2.61Zm-5.81,9.51c0-3-2.23-5-5.32-5s-5.36,2-5.36,5,2.26,5,5.36,5S326.5,305.1,326.5,302.12Z" style="fill:#263238"></path><path d="M336.92,309.78a3.63,3.63,0,0,1,7.24,0,3.62,3.62,0,0,1-7.24,0ZM337,286.5h7l-1.17,17.24H338.2Z" style="fill:#263238"></path><path d="M199.91,337H194.2L193,339.7h-1.13l4.69-10.26h1.06l4.69,10.26h-1.14Zm-.4-.88-2.46-5.51-2.46,5.51Z" style="fill:#263238"></path><path d="M207.75,339.23a2.52,2.52,0,0,1-1.63.54,2,2,0,0,1-2.25-2.24v-4.66h-1.38V332h1.38v-1.68h1V332h2.34v.88h-2.34v4.6a1.24,1.24,0,0,0,1.33,1.41,1.72,1.72,0,0,0,1.14-.4Z" style="fill:#263238"></path><path d="M213.49,339.23a2.49,2.49,0,0,1-1.62.54,2,2,0,0,1-2.26-2.24v-4.66h-1.37V332h1.37v-1.68h1V332H213v.88h-2.35v4.6a1.24,1.24,0,0,0,1.34,1.41,1.74,1.74,0,0,0,1.14-.4Z" style="fill:#263238"></path><path d="M221.82,336.17h-6.45a2.85,2.85,0,0,0,3,2.68,3,3,0,0,0,2.36-1l.59.67a4.08,4.08,0,0,1-7-2.67,3.72,3.72,0,0,1,3.77-3.91,3.67,3.67,0,0,1,3.73,3.91C221.83,335.93,221.82,336.05,221.82,336.17Zm-6.45-.78h5.47a2.74,2.74,0,0,0-5.47,0Z" style="fill:#263238"></path><path d="M231.05,335.23v4.47h-1v-4.37a2.15,2.15,0,0,0-2.32-2.46,2.52,2.52,0,0,0-2.69,2.78v4.05h-1V332h1v1.42a3.24,3.24,0,0,1,2.93-1.48A3,3,0,0,1,231.05,335.23Z" style="fill:#263238"></path><path d="M237.94,339.23a2.52,2.52,0,0,1-1.63.54,2,2,0,0,1-2.26-2.24v-4.66h-1.37V332h1.37v-1.68h1V332h2.35v.88h-2.35v4.6a1.24,1.24,0,0,0,1.34,1.41,1.74,1.74,0,0,0,1.14-.4Z" style="fill:#263238"></path><path d="M239.59,329.56a.77.77,0,0,1,1.53,0,.77.77,0,0,1-1.53,0Zm.24,2.43h1v7.71h-1Z" style="fill:#263238"></path><path d="M243,335.84a3.92,3.92,0,1,1,3.93,3.93A3.79,3.79,0,0,1,243,335.84Zm6.78,0a2.86,2.86,0,1,0-2.85,3A2.8,2.8,0,0,0,249.77,335.84Z" style="fill:#263238"></path><path d="M260.05,335.23v4.47h-1v-4.37a2.15,2.15,0,0,0-2.32-2.46,2.52,2.52,0,0,0-2.69,2.78v4.05h-1V332h1v1.42a3.24,3.24,0,0,1,2.93-1.48A3,3,0,0,1,260.05,335.23Z" style="fill:#263238"></path><path d="M274.52,335.84a3.73,3.73,0,0,1-3.83,3.93,3.37,3.37,0,0,1-2.93-1.52v4.29h-1V332h1v1.52a3.37,3.37,0,0,1,3-1.58A3.72,3.72,0,0,1,274.52,335.84Zm-1,0a2.87,2.87,0,1,0-2.87,3A2.84,2.84,0,0,0,273.48,335.84Z" style="fill:#263238"></path><path d="M276.65,328.83h1V339.7h-1Z" style="fill:#263238"></path><path d="M287.3,336.17h-6.44a2.84,2.84,0,0,0,3,2.68,3.06,3.06,0,0,0,2.36-1l.58.67a3.77,3.77,0,0,1-3,1.26,3.82,3.82,0,0,1-4-3.93,3.75,3.75,0,1,1,7.5,0C287.32,335.93,287.3,336.05,287.3,336.17Zm-6.44-.78h5.46a2.74,2.74,0,0,0-5.46,0Z" style="fill:#263238"></path><path d="M295,334.92v4.78h-1v-1.21a2.87,2.87,0,0,1-2.65,1.28c-1.74,0-2.81-.91-2.81-2.24s.76-2.18,3-2.18H294v-.47c0-1.32-.75-2-2.18-2a3.92,3.92,0,0,0-2.57.91l-.47-.78a4.9,4.9,0,0,1,3.14-1C293.91,331.93,295,332.93,295,334.92Zm-1,2.46v-1.26h-2.42c-1.49,0-2,.59-2,1.38s.72,1.45,1.95,1.45A2.47,2.47,0,0,0,294,337.38Z" style="fill:#263238"></path><path d="M296.8,338.82l.47-.82a4.65,4.65,0,0,0,2.74.86c1.46,0,2.06-.5,2.06-1.26,0-2-5-.42-5-3.47,0-1.26,1.08-2.2,3-2.2a5.24,5.24,0,0,1,2.73.72l-.45.83a4,4,0,0,0-2.28-.65c-1.39,0-2,.54-2,1.27,0,2.08,5,.51,5,3.47,0,1.33-1.17,2.2-3.18,2.2A5.16,5.16,0,0,1,296.8,338.82Z" style="fill:#263238"></path><path d="M311.74,336.17H305.3a2.85,2.85,0,0,0,3,2.68,3.06,3.06,0,0,0,2.36-1l.59.67a4.08,4.08,0,0,1-7-2.67,3.71,3.71,0,0,1,3.76-3.91,3.68,3.68,0,0,1,3.74,3.91C311.76,335.93,311.74,336.05,311.74,336.17Zm-6.44-.78h5.46a2.74,2.74,0,0,0-5.46,0Z" style="fill:#263238"></path><path d="M215.49,225.68a10.05,10.05,0,0,1-8.71-15.05l28.79-50.22a9.94,9.94,0,0,1,8.68-5h0a9.93,9.93,0,0,1,8.68,5l29.1,50.05a10,10,0,0,1-8.65,15.1l-57.9.18Zm28.8-67.32h0a7,7,0,0,0-6.09,3.54l-28.79,50.22a7.05,7.05,0,0,0,6.11,10.56h0l57.9-.18a7,7,0,0,0,6.07-10.59l-29.1-50A7,7,0,0,0,244.29,158.36Z" style="fill:#fff"></path><path d="M240.28,209.42a3.71,3.71,0,0,1,3.85-3.72,3.72,3.72,0,1,1,.06,7.43A3.74,3.74,0,0,1,240.28,209.42Zm.12-30.16,7.1,0-1,22.45-4.75,0Z" style="fill:#fff"></path><path d="M208.11,237a5.54,5.54,0,0,1-1.3-.46,20.13,20.13,0,0,1-3.3-1.8,21.89,21.89,0,0,1-9.44-21.65,19.4,19.4,0,0,1,.91-3.64,6.08,6.08,0,0,1,.55-1.27,40.78,40.78,0,0,0-1.1,5,22.39,22.39,0,0,0,9.29,21.29A41.07,41.07,0,0,0,208.11,237Z" style="fill:#fff"></path><path d="M195.76,235.78s-.26-.15-.67-.51a13.85,13.85,0,0,1-1.6-1.63,21.6,21.6,0,0,1-3.83-6.49,21.87,21.87,0,0,1-1.4-7.41,16.25,16.25,0,0,1,.13-2.28,2.7,2.7,0,0,1,.17-.83c.09,0,0,1.2.07,3.1a24.13,24.13,0,0,0,5.14,13.68C195,234.9,195.82,235.71,195.76,235.78Z" style="fill:#fff"></path><path d="M296.77,201a4.49,4.49,0,0,1,.38,1.1,9.92,9.92,0,0,1,.33,1.31,16.83,16.83,0,0,1,.3,1.78,25.36,25.36,0,0,1,.19,4.68,29.44,29.44,0,0,1-.9,5.67,30.23,30.23,0,0,1-2.08,5.36,26.09,26.09,0,0,1-2.52,4c-.39.54-.81,1-1.16,1.38a9.84,9.84,0,0,1-.95,1,6,6,0,0,1-.87.76c-.08-.08,1.13-1.2,2.68-3.33a27.93,27.93,0,0,0,2.39-4,28.65,28.65,0,0,0,2.93-10.84,28.68,28.68,0,0,0-.07-4.61C297.15,202.56,296.67,201,296.77,201Z" style="fill:#fff"></path><path d="M303.32,212a9.31,9.31,0,0,1,.14,2.63,26.95,26.95,0,0,1-3.39,12.17,9.29,9.29,0,0,1-1.48,2.17,21.66,21.66,0,0,1,1.15-2.34,33.05,33.05,0,0,0,3.35-12A22.13,22.13,0,0,1,303.32,212Z" style="fill:#fff"></path></g><g id="freepik--Character--inject-2"><path d="M47.77,285.18s21.72-5.77,23-4.73c6.66,5.31,41.88,1.15,41.88,1.15l33.61,9.49s5.46,40.26,9.15,56c2.46,10.47-6.78,26.21-6.78,26.21l-11.86,43,10.25,16.94-99.29-.05v-148Z" style="fill:#EE2B16"></path><path d="M134.22,331.48s-.3,0-.87.09-1.42.11-2.5.24a92,92,0,0,0-9.09,1.46c-3.82.78-8.31,1.91-13.31,3.13-2.5.6-5.14,1.22-7.89,1.77-1.38.26-2.77.56-4.22.7l-1.09.12-1.1,0c-.74,0-1.48.06-2.23,0a100.7,100.7,0,0,1-16.59-2.31c-5-1-9.56-2.11-13.36-2.94s-6.89-1.47-9-1.79c-1.07-.2-1.92-.28-2.48-.36s-.87-.14-.87-.14,1.21.07,3.37.38,5.25.89,9.06,1.69,8.33,1.85,13.37,2.87a101.81,101.81,0,0,0,16.55,2.29c.74.05,1.48,0,2.21,0l1.09,0c.36,0,.71-.08,1.07-.12,1.43-.13,2.83-.43,4.2-.69,2.75-.54,5.38-1.16,7.88-1.75,5-1.2,9.51-2.32,13.33-3.06A70.84,70.84,0,0,1,134.22,331.48Z" style="fill:#fafafa"></path><path d="M138.49,408.47l-.78-.53c-.49-.37-1.25-.86-2.23-1.49a44.66,44.66,0,0,0-8.9-4.21,48.49,48.49,0,0,0-14.33-2.57,128.66,128.66,0,0,0-17.86,1.46,169.93,169.93,0,0,1-17.88,1.71,58.61,58.61,0,0,1-14.59-1.35,37.38,37.38,0,0,1-9.26-3.44c-1-.57-1.8-1-2.31-1.39s-.77-.53-.77-.53.29.16.81.48,1.3.78,2.33,1.33A38.15,38.15,0,0,0,62,401.27a58.94,58.94,0,0,0,14.53,1.28,172.66,172.66,0,0,0,17.85-1.73,124.28,124.28,0,0,1,17.9-1.43,48,48,0,0,1,14.4,2.64,43.19,43.19,0,0,1,8.9,4.32c1,.64,1.72,1.16,2.2,1.54S138.49,408.47,138.49,408.47Z" style="fill:#fafafa"></path><path d="M139.89,422.66s-.31.1-.91.26-1.47.39-2.59.75a90.61,90.61,0,0,0-9.26,3.58,76.94,76.94,0,0,1-13.87,5,38.4,38.4,0,0,1-8.67.95,51.12,51.12,0,0,1-9.31-1c-6.3-1.28-12.09-3.26-17.42-4.79a75.25,75.25,0,0,0-14.41-2.94,36.65,36.65,0,0,0-9.88.35c-1.15.23-2,.42-2.63.6s-.91.23-.91.23.3-.11.89-.29,1.48-.41,2.63-.66a36.16,36.16,0,0,1,9.92-.45,74.41,74.41,0,0,1,14.47,2.89c5.34,1.52,11.13,3.48,17.4,4.75a51.61,51.61,0,0,0,9.26,1,38.56,38.56,0,0,0,8.6-.93,79.08,79.08,0,0,0,13.84-5,82.18,82.18,0,0,1,9.31-3.49c1.13-.35,2-.56,2.62-.7Z" style="fill:#fafafa"></path><g style="opacity:0.30000000000000004"><path d="M139.71,405.8c.49-15.14,3-32.89.81-47,3.07,6.54,6.34,21.13,6.34,21.13a62.36,62.36,0,0,1-2,7.28c-1.69,5.71-3.45,12.9-5.14,18.62"></path></g><path d="M146,374.25s-.31-.21-.87-.63a25.83,25.83,0,0,0-2.53-1.71A30.71,30.71,0,0,0,132,368.22a51.52,51.52,0,0,0-16.62.21c-6.21,1-12.87,3-19.94,4.68s-14,3-20.32,2.25a46.31,46.31,0,0,1-16-4.75,36.37,36.37,0,0,1-5.46-3.41c-.73-.61-1.42-1.17-2-1.72s-1.11-1.09-1.55-1.59L49,362.5a11.44,11.44,0,0,1-.71-1.09c-.37-.59-.55-.92-.55-.92s.22.3.6.89c.2.28.41.67.73,1.07l1.13,1.36c.45.49,1,1,1.56,1.56s1.28,1.1,2,1.69a36.08,36.08,0,0,0,5.46,3.35,46.57,46.57,0,0,0,15.93,4.67c6.27.71,13.18-.6,20.22-2.27s13.72-3.67,20-4.66a51,51,0,0,1,16.7-.14,30.4,30.4,0,0,1,10.59,3.79,25.73,25.73,0,0,1,2.51,1.77C145.73,374,146,374.25,146,374.25Z" style="fill:#fafafa"></path><path d="M124.91,408.37a2.86,2.86,0,0,1-.55.17l-1.61.39c-1.39.33-3.41.78-5.92,1.32-5,1.07-12,2.47-19.64,3.88s-14.68,2.56-19.74,3.33c-2.53.38-4.59.68-6,.86l-1.63.21a2.12,2.12,0,0,1-.58,0,3.88,3.88,0,0,1,.56-.14l1.62-.3,6-1c5-.86,12-2.06,19.71-3.47s14.63-2.75,19.66-3.74l5.95-1.15,1.63-.29A2.44,2.44,0,0,1,124.91,408.37Z" style="fill:#263238"></path><path d="M126.79,372.89a2.52,2.52,0,0,1-.05.61c-.07.39-.1,1-.28,1.72a28,28,0,0,1-2,6.09,35.93,35.93,0,0,1-5.09,8,45.77,45.77,0,0,1-8.56,7.89A83.24,83.24,0,0,1,92,406.75c-2.52,1-4.59,1.68-6,2.16l-1.65.55a3.74,3.74,0,0,1-.58.16,2.1,2.1,0,0,1,.55-.26l1.62-.64,6-2.31a89.38,89.38,0,0,0,18.66-9.6A46.85,46.85,0,0,0,119,389a36.2,36.2,0,0,0,5.12-7.87,30.18,30.18,0,0,0,2.13-6C126.61,373.71,126.74,372.89,126.79,372.89Z" style="fill:#263238"></path><path d="M80.54,170c9.68-9.24,24.66-14.39,36.74-8.63,8.12,3.87,13.46,11.78,20.51,17.36,5.14,4.07,11.55,7.29,14.12,13.32,2.26,5.31.89,11.37.12,17.09s-.58,12.37,3.75,16.19c2.27,2,5.32,2.88,7.9,4.47,5.2,3.21,8.15,9.21,9.09,15.25s.13,12.18-.68,18.24l-25.4,4-3.92-7.11L141,271.1,108.66,273Z" style="fill:#263238"></path><path d="M76,180.3l-.29,7-5.4,105.22c-.57,12.2,10.77,23,23.83,23.48h0c13.2.52,18.9-9.22,19.68-21.54.82-12.92,1.92-26.51,1.92-26.51s16.81-1.77,21.57-23.28c2.37-10.71,2.89-28.45,2.85-43a23,23,0,0,0-24-22.91Z" style="fill:#ffbe9d"></path><path d="M132.6,214.52a2.79,2.79,0,0,1-2.86,2.65,2.68,2.68,0,0,1-2.72-2.68,2.79,2.79,0,0,1,2.85-2.65A2.67,2.67,0,0,1,132.6,214.52Z" style="fill:#263238"></path><path d="M135.8,210.69c-.37.34-2.39-1.35-5.38-1.52s-5.29,1.19-5.59.8c-.15-.17.24-.8,1.24-1.44a7.62,7.62,0,0,1,4.5-1.1,7.39,7.39,0,0,1,4.26,1.66C135.71,209.86,136,210.53,135.8,210.69Z" style="fill:#263238"></path><path d="M103.46,213.58a2.8,2.8,0,0,1-2.86,2.65,2.67,2.67,0,0,1-2.72-2.69,2.8,2.8,0,0,1,2.85-2.65A2.68,2.68,0,0,1,103.46,213.58Z" style="fill:#263238"></path><path d="M106.29,209.47c-.36.35-2.38-1.34-5.38-1.52s-5.29,1.2-5.59.81c-.15-.17.24-.8,1.24-1.44a7.66,7.66,0,0,1,4.5-1.1,7.32,7.32,0,0,1,4.26,1.66C106.2,208.64,106.47,209.32,106.29,209.47Z" style="fill:#263238"></path><path d="M115.84,232.36c0-.17,1.88-.38,4.92-.58.77,0,1.5-.14,1.67-.66a3.92,3.92,0,0,0-.38-2.3l-1.91-6c-2.65-8.49-4.51-15.45-4.17-15.55s2.76,6.69,5.41,15.18c.63,2.09,1.24,4.09,1.81,6a4.42,4.42,0,0,1,.22,3,1.92,1.92,0,0,1-1.32,1,5.27,5.27,0,0,1-1.32.1C117.73,232.63,115.84,232.53,115.84,232.36Z" style="fill:#263238"></path><path d="M115.78,268a55.4,55.4,0,0,1-28.63-9.51s6.16,15.35,28,14.62Z" style="fill:#eb996e"></path><path d="M113.32,237.52a5.39,5.39,0,0,0-5.25.06,4.94,4.94,0,0,0-2.41,3,3.13,3.13,0,0,0,1.19,3.38,3.64,3.64,0,0,0,4-.63,11.29,11.29,0,0,0,2.62-3.62,3.16,3.16,0,0,0,.44-1.16,1,1,0,0,0-.44-1" style="fill:#eb996e"></path><path d="M105.23,201c-.11.86-3.13,1.12-6.48,2.28s-5.93,2.71-6.55,2.09c-.27-.3,0-1.15,1-2.17a11.48,11.48,0,0,1,4.58-2.81,11.34,11.34,0,0,1,5.35-.52C104.5,200.09,105.27,200.58,105.23,201Z" style="fill:#263238"></path><path d="M137,206.13c-.82.45-3-1-5.88-1.95s-5.46-1.27-5.81-2.13c-.14-.41.46-.94,1.72-1.21a10,10,0,0,1,5.13.47,9.81,9.81,0,0,1,4.29,2.82C137.27,205.12,137.39,205.9,137,206.13Z" style="fill:#263238"></path><path d="M92,168c3.76,5.42,5.5,9.54,7.56,19,1,4.64-2.85,7.77-6.66,10.46a3,3,0,0,1-4.68-1.88h0S89,210,83.61,216.3c-2.54,2.95-2.77,6.83-2.29,10.12a17.25,17.25,0,0,0,4.36,9c5.84,6.54,7.18,17,2.76,24.61a65,65,0,0,0-3.51,5.81,9,9,0,0,0-.81,3.8,3,3,0,0,1-2.68,3.14,238.23,238.23,0,0,1-54.11-.13,3,3,0,0,1-2.57-2.33c-1.22-6,1.35-12.45,4.54-17.85,3.57-6,8.06-11.79,9.44-18.66,1.3-6.46-.24-13.53,2.57-19.5,3.44-7.32,12.27-10.55,16.85-17.22,4.33-6.29,4.27-14.74,8.17-21.3,5-8.43,16.8-12,25.66-7.8" style="fill:#263238"></path><path d="M92.73,176c6.73,3.74,9.61,12.21,16.13,16.3,5.94,3.72,13.52,3,20.48,2.22-.21-1.54-.41-3.09-.62-4.63a12.38,12.38,0,0,0,2.45,3.81,4.22,4.22,0,0,0,4.17,1.14c2.36-.87,2.77-4.05,2.25-6.5a22.57,22.57,0,0,0-5.71-10.44,30.66,30.66,0,0,0-39.9-4.5" style="fill:#263238"></path><path d="M67.7,191.72a19.75,19.75,0,0,0-3-19.95,16.74,16.74,0,0,0-17.75-4.93A13.9,13.9,0,0,0,39.74,172c-3.25,4.7-2.88,11.79.17,16.61a18,18,0,0,0,13.57,8c5.26.5,10.55-1,15.5-3.07" style="fill:#263238"></path><path d="M58.16,192.81c.08-.08,1.28,1,3.51,2.34a25.55,25.55,0,0,0,4.11,2,26.42,26.42,0,0,0,11,1.62,26,26,0,0,0,4.5-.68c2.52-.62,4-1.32,4-1.22a3.9,3.9,0,0,1-1,.54,9.69,9.69,0,0,1-1.24.52,16.85,16.85,0,0,1-1.69.55,23.84,23.84,0,0,1-4.57.81A25.13,25.13,0,0,1,65.6,197.6a24.29,24.29,0,0,1-4.13-2.1,14,14,0,0,1-1.46-1,9.51,9.51,0,0,1-1-.86A4.83,4.83,0,0,1,58.16,192.81Z" style="fill:#455a64"></path><path d="M85.86,206.24a4.94,4.94,0,0,1-1.2.33c-.78.17-1.91.39-3.33.59a30.39,30.39,0,0,1-11.14-.3,17.38,17.38,0,0,1-9.45-5.8A11.94,11.94,0,0,1,59,198.13a4.32,4.32,0,0,1-.36-1.19,19.75,19.75,0,0,0,2.4,3.86,17.74,17.74,0,0,0,9.27,5.51,32.74,32.74,0,0,0,11,.45c1.41-.15,2.55-.31,3.34-.41A5,5,0,0,1,85.86,206.24Z" style="fill:#455a64"></path><path d="M45,271.54s-.05,0-.13-.15a5.76,5.76,0,0,1-.36-.5,6.39,6.39,0,0,1-.79-2.21,10,10,0,0,1,2.65-8A20.58,20.58,0,0,1,51,257c1.82-1.12,3.87-2.13,5.87-3.39a17.54,17.54,0,0,0,5.41-4.95,9.44,9.44,0,0,0,1.42-3.55,11.23,11.23,0,0,0-.08-4,48.92,48.92,0,0,0-2.51-7.59,20.86,20.86,0,0,1-1.6-7.39,19.56,19.56,0,0,1,4.12-11.93,18.23,18.23,0,0,1,6.6-5.45l1.23-.54,1-.3a4,4,0,0,1,.79-.2,5.5,5.5,0,0,1-.76.31l-.91.35-1.2.58A18.65,18.65,0,0,0,64,214.47,19.3,19.3,0,0,0,60,226.16a20.54,20.54,0,0,0,1.6,7.19A48,48,0,0,1,64.17,241a11.7,11.7,0,0,1,.08,4.17A9.51,9.51,0,0,1,62.74,249,17.83,17.83,0,0,1,57.15,254c-2,1.27-4.09,2.26-5.9,3.36A20,20,0,0,0,46.63,261a9.91,9.91,0,0,0-2.74,7.7A7.52,7.52,0,0,0,45,271.54Z" style="fill:#455a64"></path><path d="M73.92,272.88a3.06,3.06,0,0,1-.62-.38A5.05,5.05,0,0,1,72,270.93a7.39,7.39,0,0,1-.88-3.16,11.8,11.8,0,0,1,.62-4.31c1-3.17,3.75-6,5.87-9.57a12.21,12.21,0,0,0,1.83-6.14A16.6,16.6,0,0,0,77.87,241c-1.93-4.44-5-8-7.07-11.73a23.92,23.92,0,0,1-2.39-5.55,13.31,13.31,0,0,1-.36-5.26,10.36,10.36,0,0,1,3.39-6.7,7.13,7.13,0,0,1,1.78-1.06,2.81,2.81,0,0,1,.69-.22,9,9,0,0,0-5.46,8,12.84,12.84,0,0,0,.42,5.08A23.45,23.45,0,0,0,71.26,229c1,1.81,2.31,3.63,3.59,5.54a39.42,39.42,0,0,1,3.54,6.22,17.25,17.25,0,0,1,1.56,7A12.71,12.71,0,0,1,78,254.15c-2.2,3.65-5,6.41-5.94,9.44a11.55,11.55,0,0,0-.68,4.16,7.3,7.3,0,0,0,.75,3.08A6.65,6.65,0,0,0,73.92,272.88Z" style="fill:#455a64"></path><path d="M119.49,192.63s-.14,0-.4-.19a8.33,8.33,0,0,1-1.06-.72,13.2,13.2,0,0,1-3-3.59,38.57,38.57,0,0,1-2.81-6.34c-.46-1.22-.95-2.48-1.57-3.74a22.25,22.25,0,0,0-2.29-3.66,24.57,24.57,0,0,0-12.3-8.51,33,33,0,0,0-6.23-1.1,8.84,8.84,0,0,1,1.72,0,22.94,22.94,0,0,1,4.62.75,23.6,23.6,0,0,1,6.35,2.82,23.29,23.29,0,0,1,8.63,9.5c.62,1.29,1.11,2.57,1.56,3.79a41.44,41.44,0,0,0,2.67,6.33,13.87,13.87,0,0,0,2.81,3.62C119,192.28,119.52,192.58,119.49,192.63Z" style="fill:#455a64"></path><path d="M134.67,193a2.32,2.32,0,0,1-.59-.08,8.21,8.21,0,0,1-1.62-.48,14.07,14.07,0,0,1-5.07-3.53,31.33,31.33,0,0,1-5.14-7.61c-1.61-3.05-3.15-6.54-5.61-9.61a18.56,18.56,0,0,0-9-6.06,36.11,36.11,0,0,0-8.94-1.49c-2.59-.14-4.7-.1-6.16-.09H90.83a2.44,2.44,0,0,1-.59,0,2.73,2.73,0,0,1,.58-.08c.38,0,1-.08,1.68-.11,1.45-.08,3.56-.18,6.18-.09a35.24,35.24,0,0,1,9.08,1.39,18.9,18.9,0,0,1,9.32,6.2c2.53,3.16,4.06,6.69,5.63,9.73a32.23,32.23,0,0,0,5,7.57,14.69,14.69,0,0,0,4.87,3.61C133.87,192.84,134.68,193,134.67,193Z" style="fill:#455a64"></path><path d="M158.05,264.46c-.06,0,.31-.77.72-2.18a21.13,21.13,0,0,0,.85-6.12,20.7,20.7,0,0,0-2-8.86,21.22,21.22,0,0,0-3-4.51c-1.22-1.44-2.62-2.81-4-4.25a38.45,38.45,0,0,1-3.89-4.46,27.41,27.41,0,0,1-2.75-4.79,27.66,27.66,0,0,1-2.28-9A25.8,25.8,0,0,1,142,214c.11-.73.26-1.29.35-1.67a2.64,2.64,0,0,1,.18-.57c.06,0-.14.81-.31,2.27a27.62,27.62,0,0,0-.09,6.2,27.19,27.19,0,0,0,.74,4.22,26.42,26.42,0,0,0,1.62,4.63,27,27,0,0,0,2.72,4.68,38.83,38.83,0,0,0,3.85,4.38c1.4,1.44,2.81,2.83,4,4.3a20.49,20.49,0,0,1,5,13.72,19.8,19.8,0,0,1-1,6.19,13.9,13.9,0,0,1-.65,1.58A2.36,2.36,0,0,1,158.05,264.46Z" style="fill:#455a64"></path><path d="M39.38,186.92a4.48,4.48,0,0,1,.2-1.38A15,15,0,0,1,40.94,182a14.4,14.4,0,0,1,9-7.3A13.1,13.1,0,0,1,63.2,180a4.47,4.47,0,0,1,.67,1.18,24.14,24.14,0,0,0-3.4-3.38,12.76,12.76,0,0,0-10.39-2.37,14.38,14.38,0,0,0-8.75,6.85A27,27,0,0,0,39.38,186.92Z" style="fill:#455a64"></path><path d="M51.43,193.29a12.75,12.75,0,0,1,.45-3.2,15.16,15.16,0,0,1,3.22-7,6.2,6.2,0,0,1,6.76-1.68,4,4,0,0,1,1.75,1.43c.3.47.39.77.36.79a6,6,0,0,0-2.27-1.73,6,6,0,0,0-6.15,1.72,16.21,16.21,0,0,0-3.22,6.62A20.62,20.62,0,0,1,51.43,193.29Z" style="fill:#455a64"></path><path d="M68.15,173c.17.14-2,3.18-3.57,7.62s-1.78,8.32-2,8.3-.23-4,1.38-8.57S68.05,172.91,68.15,173Z" style="fill:#EE2B16"></path><path d="M21.16,243.71a5.55,5.55,0,0,0,2.18,1.63,6.53,6.53,0,0,0,3.16.43,7,7,0,0,0,3.86-1.63c2.46-2,3.81-5.93,3.7-10.1,0-2.1-.29-4.3-.5-6.59a26.36,26.36,0,0,1,.12-7.14,12.86,12.86,0,0,1,1.12-3.46A12.17,12.17,0,0,1,36.86,214a20.14,20.14,0,0,1,5.45-3.79c1.9-1,3.75-1.73,5.47-2.49a30.5,30.5,0,0,0,4.57-2.48,13.85,13.85,0,0,0,5.06-5.43,11.87,11.87,0,0,0,.8-2.63s0,.24-.09.71a8.36,8.36,0,0,1-.6,2,13.65,13.65,0,0,1-5.05,5.57,30.71,30.71,0,0,1-4.59,2.53c-1.71.77-3.56,1.55-5.44,2.5a20.23,20.23,0,0,0-5.36,3.75,11.75,11.75,0,0,0-2,2.81,12.88,12.88,0,0,0-1.1,3.38c-.83,4.8.39,9.43.37,13.67s-1.3,8.2-3.85,10.27a7.1,7.1,0,0,1-4,1.63,6.54,6.54,0,0,1-3.22-.49,4.51,4.51,0,0,1-2.14-1.74Z" style="fill:#263238"></path><path d="M148,173.19a2.49,2.49,0,0,1,.2.61,3.46,3.46,0,0,1-.12,1.84,5.2,5.2,0,0,1-5.4,3.4,8.12,8.12,0,0,1-4.29-1.87,15.46,15.46,0,0,1-3.44-4.13c-1-1.61-1.9-3.39-3.09-5a24.75,24.75,0,0,0-4.25-4.65,25.43,25.43,0,0,0-27.14-3.65c-.72.34-1.28.62-1.64.83s-.57.29-.57.29a16.75,16.75,0,0,1,2.15-1.23,25,25,0,0,1,6.44-2.11,25,25,0,0,1,21,5.63,24.69,24.69,0,0,1,4.3,4.71c1.2,1.7,2.09,3.48,3.08,5.08a15.54,15.54,0,0,0,3.36,4.08,8,8,0,0,0,4.15,1.85,4.87,4.87,0,0,0,3.55-1A5,5,0,0,0,148,175.6a3.52,3.52,0,0,0,.18-1.79C148.06,173.4,148,173.19,148,173.19Z" style="fill:#263238"></path><path d="M84.65,265.19l.19-.09.57-.26c.51-.24,1.25-.59,2.16-1.11A17.39,17.39,0,0,0,94,257.66a12.81,12.81,0,0,0,1.77-5.79,10.56,10.56,0,0,0-.36-3.37,12.93,12.93,0,0,0-1.53-3.24,31.81,31.81,0,0,0-5.37-5.62c-1-.91-2.07-1.81-3.07-2.8a18,18,0,0,1-2.75-3.3,13.07,13.07,0,0,1-1-1.93,9.67,9.67,0,0,1-.48-2.1,8.94,8.94,0,0,1,.46-4.15,30.84,30.84,0,0,1,3.92-6.8,24.13,24.13,0,0,0,3.24-6.23,23.41,23.41,0,0,0,1.15-6,22.79,22.79,0,0,0-1.2-8.77,19.78,19.78,0,0,0-.9-2.25c-.24-.5-.35-.78-.35-.78s.15.26.4.75a17.5,17.5,0,0,1,1,2.24,22.51,22.51,0,0,1,1.3,8.82A23.44,23.44,0,0,1,89,212.41a24.77,24.77,0,0,1-3.25,6.31,30.9,30.9,0,0,0-3.87,6.74,8.65,8.65,0,0,0-.44,4,9.05,9.05,0,0,0,.47,2,11.44,11.44,0,0,0,1,1.87,17.28,17.28,0,0,0,2.7,3.25c1,1,2,1.88,3,2.79a31.45,31.45,0,0,1,5.41,5.69,12.9,12.9,0,0,1,1.55,3.33,10.8,10.8,0,0,1,.36,3.45,13.23,13.23,0,0,1-1.84,5.9,17.21,17.21,0,0,1-6.51,6.05A17.63,17.63,0,0,1,84.65,265.19Z" style="fill:#263238"></path><path d="M164.76,225.51l.15.05a1.82,1.82,0,0,1,.43.21,2.79,2.79,0,0,1,1.07,1.46,3.33,3.33,0,0,1-.32,2.83,4,4,0,0,1-3.34,1.69,5.73,5.73,0,0,1-4.19-1.82,12.06,12.06,0,0,1-2.73-4.55c-1.31-3.55-1.35-7.77-.94-12s1-8.34.8-12.05a19.63,19.63,0,0,0-.94-5.15,14.54,14.54,0,0,0-2.11-4,11.12,11.12,0,0,0-5.14-4,12.94,12.94,0,0,0-2.37-.54s.22,0,.63,0a4.29,4.29,0,0,1,.77.11,5.37,5.37,0,0,1,1,.28,11,11,0,0,1,5.28,4,14.74,14.74,0,0,1,2.17,4.08,19.82,19.82,0,0,1,1,5.22c.25,3.75-.36,7.83-.78,12.1s-.37,8.42.9,11.92a11.87,11.87,0,0,0,2.64,4.45,5.5,5.5,0,0,0,4,1.79A3.89,3.89,0,0,0,166,230a3.2,3.2,0,0,0,.34-2.69,2.77,2.77,0,0,0-1-1.45C165,225.59,164.75,225.54,164.76,225.51Z" style="fill:#263238"></path><path d="M70.33,283.16S78.5,299.73,95.79,299,114.88,283,114.88,283l9.68,10.65-9.68,23.83-14.23,6.15-23.18-6.15-6.2-9.82L55.93,289.51Z" style="fill:#EE2B16"></path><path d="M127.88,301,127,301a11.77,11.77,0,0,0-2.41.47,17,17,0,0,0-3.52,1.66c-1.3.79-2.7,1.82-4.25,3a36.05,36.05,0,0,1-5.29,3.41,20.48,20.48,0,0,1-3.3,1.24,22.68,22.68,0,0,1-3.67.67c-5.11.53-10.74-.6-16.27-2.52s-10.71-4.11-15.65-5.27a25.67,25.67,0,0,0-7.13-.66,43.81,43.81,0,0,0-6.22.66,34.86,34.86,0,0,0-8.66,2.66c-.49.22-.9.46-1.26.66a7.63,7.63,0,0,0-.89.54l-.73.47a13.67,13.67,0,0,1,2.83-1.77,33.3,33.3,0,0,1,8.67-2.77,43.93,43.93,0,0,1,6.25-.71,25.8,25.8,0,0,1,7.2.64c5,1.16,10.15,3.36,15.69,5.25s11.09,3,16.14,2.54a24.54,24.54,0,0,0,3.63-.65,19,19,0,0,0,3.25-1.22,34,34,0,0,0,5.28-3.35c1.56-1.13,3-2.15,4.29-2.93a17.15,17.15,0,0,1,3.57-1.63A10.76,10.76,0,0,1,127,301C127.59,301,127.88,301,127.88,301Z" style="fill:#fafafa"></path><path d="M129.94,243.7,136.52,257l.6,7.2s.6-2.17,1.34-4.21,1.21-8.42,1.21-8.42l-4.8-9.95s-2.83-5.49.59-8.05l5.08,6.71s-4-7.71-.23-9.81l4.29,4.82a2,2,0,0,1,.92-2.91l10.83,13.89L155,266.72,151.29,288l1.77,3.18L133.83,304.5s-6-13.15-6.42-17.5,3.87-27.4,3.87-27.4-4.09-8.19-3.56-11.47S129.94,243.7,129.94,243.7Z" style="fill:#ffbe9d"></path><path d="M135.38,307.69l-.12-.19-.3-.61-1.13-2.39c-1-2.11-2.38-5.22-4-9.27a59.76,59.76,0,0,1-2.38-6.86,12.08,12.08,0,0,1-.19-4.17c.12-1.42.28-2.9.48-4.42.79-6.08,1.92-12.92,3.26-20.42l0,.22a49.18,49.18,0,0,1-3.11-7.77,16.92,16.92,0,0,1-.48-2.16,7.38,7.38,0,0,1-.07-1.16l0-.59.11-.57a8.76,8.76,0,0,1,.76-2.19,5.65,5.65,0,0,1,1.49-1.92l.34-.27.21.41c2.09,4.22,4.31,8.66,6.59,13.25l0,.07v.07c.2,2.26.4,4.72.61,7.21l-.78-.08c.31-1,.63-2,1-3l.48-1.51a12.61,12.61,0,0,0,.35-1.53c.36-2.11.57-4.31.74-6.51l0,.21-2.87-6c-.49-1-1-2-1.48-3.07-.24-.51-.52-1-.74-1.59a12.39,12.39,0,0,1-.56-1.69,7.84,7.84,0,0,1-.17-3.31,4.52,4.52,0,0,1,1.74-2.88l.33-.24.24.32,5.08,6.72-.69.43a19.1,19.1,0,0,1-1.77-5.21,7.38,7.38,0,0,1,0-2.81,3.51,3.51,0,0,1,1.7-2.33l.29-.16.21.25,4.35,5.23-.65.43a3.31,3.31,0,0,1-.28-2,2.35,2.35,0,0,1,1.28-1.63l.29-.15.2.25,10.83,13.73.09.12v.13c-.5,7.38-1,14.22-1.39,20.48v0c-1.46,8.18-2.73,15.31-3.8,21.26l0-.15,7.1,13.14,1.86,3.5.47.91a2.74,2.74,0,0,1,.14.32,1.39,1.39,0,0,1-.2-.29l-.52-.88-2-3.44c-1.7-3-4.17-7.46-7.3-13l0-.07,0-.08c1-6,2.23-13.09,3.63-21.29v0c.39-6.26.83-13.11,1.29-20.48l.08.25-10.88-13.71.49.11a1.61,1.61,0,0,0-.88,1.1,2.58,2.58,0,0,0,.22,1.51l1.19,2.64-1.84-2.21L140,230.52l.51.09a2.7,2.7,0,0,0-1.31,1.82,6.94,6.94,0,0,0,0,2.49,18.33,18.33,0,0,0,1.7,5l-.68.44-5.08-6.71.57.08a3.7,3.7,0,0,0-1.43,2.37,7.1,7.1,0,0,0,.17,3,10.82,10.82,0,0,0,.52,1.58c.2.51.47,1,.71,1.54l1.48,3.07,2.88,6,.05.1v.11c-.18,2.23-.39,4.43-.77,6.59a13.45,13.45,0,0,1-.36,1.62c-.17.52-.33,1-.49,1.53l-.95,3-.62,1.94-.16-2c-.21-2.49-.41-4.94-.6-7.2l0,.14c-2.27-4.59-4.47-9-6.56-13.26l.54.14a5,5,0,0,0-1.25,1.63,8.09,8.09,0,0,0-.71,2,8.48,8.48,0,0,0,.37,4.13,49.26,49.26,0,0,0,3,7.66l0,.1,0,.11c-1.37,7.47-2.55,14.31-3.38,20.36-.21,1.51-.38,3-.51,4.4a11.6,11.6,0,0,0,.14,4,58.66,58.66,0,0,0,2.28,6.83c1.58,4.06,2.93,7.19,3.84,9.33.46,1.05.8,1.87,1,2.43l.26.62C135.37,307.62,135.39,307.69,135.38,307.69Z" style="fill:#eb996e"></path><path d="M145.65,262.18a14.46,14.46,0,0,1,0-3.53c.11-2.18.33-5.18.63-8.49l.08-.91.07.27c-1.74-2.59-3.26-4.92-4.32-6.62a13.14,13.14,0,0,1-1.57-2.83,13.21,13.21,0,0,1,2,2.52c1.18,1.62,2.77,3.89,4.52,6.47l.09.12,0,.14c0,.29-.05.6-.08.91-.29,3.31-.6,6.31-.86,8.47A15.59,15.59,0,0,1,145.65,262.18Z" style="fill:#eb996e"></path><path d="M151.32,256.5a14.16,14.16,0,0,1,0-3.23c.11-2,.31-4.77.58-7.88l.09.29-.61-.78c-2-2.66-3.84-5.09-5.11-6.87a15.29,15.29,0,0,1-1.93-3,14.93,14.93,0,0,1,2.39,2.64c1.39,1.69,3.27,4.06,5.31,6.72.2.26.4.53.6.78l.09.13v.16c-.29,3.1-.59,5.86-.84,7.85A12.78,12.78,0,0,1,151.32,256.5Z" style="fill:#eb996e"></path><path d="M128.64,300.05l26.81-11.32s39,87.41,41.24,93.06c5.38,13.31.06,33.06-14.58,32.7-6.9-.16-26.66-2.84-32.05-23.83-1.69-6.58-6.48-22.35-6.48-22.35Z" style="fill:#EE2B16"></path><path d="M155.45,288.73a2.53,2.53,0,0,1-.47.26l-1.41.68-5.37,2.54-19.26,9,.12-.24c1.59,8.94,3.57,19.57,6,30.87,3.48,16.41,7.28,31.12,10.2,41.71,1.49,5.27,2.7,9.54,3.54,12.53.42,1.45.74,2.59,1,3.4l.24.89a1.05,1.05,0,0,1,.07.31,1.48,1.48,0,0,1-.12-.29c-.07-.23-.17-.51-.29-.88l-1.06-3.37c-.91-2.94-2.19-7.2-3.7-12.49-3-10.57-6.87-25.28-10.36-41.7-2.41-11.31-4.36-21.95-5.91-30.91l0-.17.16-.07,19.34-8.8,5.43-2.43,1.43-.63Z" style="fill:#263238"></path><path d="M192.35,376.2a2.62,2.62,0,0,1-.24.4l-.74,1.13a16.67,16.67,0,0,1-1.25,1.72c-.52.65-1.07,1.43-1.79,2.18l-1.11,1.22c-.39.42-.83.82-1.27,1.25-.87.88-1.89,1.7-2.95,2.6a49.21,49.21,0,0,1-7.58,4.87,47.85,47.85,0,0,1-8.4,3.25c-1.34.33-2.61.68-3.83.86-.61.1-1.19.23-1.76.3l-1.64.17c-1,.14-2,.13-2.82.17a16.48,16.48,0,0,1-2.13,0l-1.35-.06a3.39,3.39,0,0,1-.46,0,2.42,2.42,0,0,1,.47,0h1.34a19.91,19.91,0,0,0,2.13,0c.82-.06,1.77-.06,2.8-.22l1.62-.19c.57-.08,1.15-.21,1.75-.31,1.21-.19,2.47-.55,3.81-.88a45.78,45.78,0,0,0,15.87-8.08c1.05-.88,2.08-1.69,3-2.56.44-.42.89-.81,1.28-1.23s.76-.81,1.11-1.2c.73-.74,1.3-1.5,1.83-2.13a21,21,0,0,0,1.28-1.69l.79-1.09Z" style="fill:#fafafa"></path><path d="M185,352.51a2.24,2.24,0,0,1-.21.41c-.15.26-.35.67-.68,1.15a21.19,21.19,0,0,1-3.12,3.79,23.22,23.22,0,0,1-5.93,4.22,22.87,22.87,0,0,1-8.58,2.39,61.63,61.63,0,0,1-8.91-.4,25.78,25.78,0,0,0-7.21.24,12.79,12.79,0,0,0-4.52,1.74c-1,.62-1.41,1.09-1.44,1.06a7.65,7.65,0,0,1,1.38-1.17,12.36,12.36,0,0,1,4.54-1.85,25.62,25.62,0,0,1,7.27-.31,64.53,64.53,0,0,0,8.87.38,22.75,22.75,0,0,0,8.47-2.34,23.23,23.23,0,0,0,5.91-4.12A23,23,0,0,0,184,354c.34-.46.55-.86.73-1.11A3.61,3.61,0,0,1,185,352.51Z" style="fill:#fafafa"></path><path d="M137.66,342.11s.54,0,1.5,0a14.54,14.54,0,0,0,4-.66,21.33,21.33,0,0,0,5.4-2.61,54.56,54.56,0,0,0,5.81-4.59,64.4,64.4,0,0,1,5.78-4.67,22.74,22.74,0,0,1,5.41-2.79,14.11,14.11,0,0,1,4-.79,8.39,8.39,0,0,1,1.5.06s-.54,0-1.5.06a15.26,15.26,0,0,0-4,.88,23,23,0,0,0-5.31,2.82,68.74,68.74,0,0,0-5.75,4.67,52,52,0,0,1-5.85,4.59,21,21,0,0,1-5.5,2.59,13.82,13.82,0,0,1-4.06.56A7.62,7.62,0,0,1,137.66,342.11Z" style="fill:#fafafa"></path><path d="M157.61,301.67a1.07,1.07,0,0,1-.08.28,5.53,5.53,0,0,1-.35.77,8.68,8.68,0,0,1-2,2.4,12.89,12.89,0,0,1-4,2.29,23,23,0,0,1-5.51,1.13c-2,.21-3.87.29-5.57.48a26.59,26.59,0,0,0-4.47.82,15.23,15.23,0,0,0-2.83,1.14c-.64.34-1,.57-1,.54a1.15,1.15,0,0,1,.23-.18,7.45,7.45,0,0,1,.7-.47,13.34,13.34,0,0,1,2.83-1.24,25.14,25.14,0,0,1,4.5-.9c1.71-.2,3.6-.3,5.57-.5a23.72,23.72,0,0,0,5.44-1.09,12.91,12.91,0,0,0,3.93-2.19A9.58,9.58,0,0,0,157.61,301.67Z" style="fill:#fafafa"></path></g><g id="freepik--Plant--inject-2"><path d="M396,389.56c2.31,2.76,6.22,1.43,7.91-.53s2.24-4.62,2.73-7.16c1.13-5.8,2.24-11.88.51-17.53a9.66,9.66,0,0,0-2.63-4.52,5.07,5.07,0,0,0-4.92-1.16c-2,.71-3,2.79-3.78,4.75a41.69,41.69,0,0,0-2.5,18.11c.25,2.86.85,5.83,2.68,8" style="fill:#EE2B16"></path><g style="opacity:0.2"><path d="M396,389.56c2.31,2.76,6.22,1.43,7.91-.53s2.24-4.62,2.73-7.16c1.13-5.8,2.24-11.88.51-17.53a9.66,9.66,0,0,0-2.63-4.52,5.07,5.07,0,0,0-4.92-1.16c-2,.71-3,2.79-3.78,4.75a41.69,41.69,0,0,0-2.5,18.11c.25,2.86.85,5.83,2.68,8"></path></g><path d="M405.05,403.74A17.8,17.8,0,0,1,416,401.41a9.16,9.16,0,0,1,5.67,1.95c1.5,1.38,2,4,.55,5.44a5.33,5.33,0,0,1-3.37,1.18c-2.92.22-6.21,0-8.38,2-1.24,1.12-2,2.86-3.53,3.5a3.78,3.78,0,0,1-4.3-1.47,6.45,6.45,0,0,1-.89-4.71A7.23,7.23,0,0,1,405.05,403.74Z" style="fill:#EE2B16"></path><path d="M390.76,394.28a10.72,10.72,0,0,0,.79-10,19.09,19.09,0,0,0-6.58-7.93,31.34,31.34,0,0,0-11-5.21,11.11,11.11,0,0,0-4.75-.38,4.92,4.92,0,0,0-3.72,2.73c-.91,2.19.36,4.63,1.69,6.6a79,79,0,0,0,7.77,9.81c2.29,2.46,4.87,4.86,8.1,5.78s6.47.48,7.94-1.83" style="fill:#EE2B16"></path><path d="M399.84,433.84a6.26,6.26,0,0,0,.07-1.35c0-1,0-2.21,0-3.67a51.33,51.33,0,0,1,.34-5.41,41.34,41.34,0,0,1,1.38-6.47,23.4,23.4,0,0,1,2.7-6,12.19,12.19,0,0,1,3.77-3.75,11.63,11.63,0,0,1,3.33-1.37,6.16,6.16,0,0,0,1.31-.31,6.21,6.21,0,0,0-1.35.1,10.51,10.51,0,0,0-3.49,1.25,12.11,12.11,0,0,0-4,3.79,23,23,0,0,0-2.81,6.12,39.07,39.07,0,0,0-1.36,6.57,45.21,45.21,0,0,0-.22,5.47c0,1.55.09,2.81.14,3.67A7.17,7.17,0,0,0,399.84,433.84Z" style="fill:#263238"></path><path d="M399.84,431a2.18,2.18,0,0,0,0-.63c0-.46-.09-1.05-.16-1.76-.14-1.54-.34-3.76-.5-6.51-.36-5.5-.56-13.12-.39-21.53s.72-16,1.35-21.48c.15-1.37.3-2.61.46-3.69s.26-2,.39-2.78.19-1.3.26-1.76a2.61,2.61,0,0,0,0-.62,3,3,0,0,0-.16.6q-.15.69-.36,1.74c-.17.76-.32,1.69-.49,2.77s-.37,2.32-.53,3.69a197.93,197.93,0,0,0-1.52,21.52c-.17,8.43.09,16.06.55,21.57.21,2.75.47,5,.68,6.5.11.71.19,1.3.26,1.76A2.89,2.89,0,0,0,399.84,431Z" style="fill:#263238"></path><path d="M398.57,416.36a11.94,11.94,0,0,0-.18-1.85c-.17-1.18-.49-2.88-1-4.95a65.81,65.81,0,0,0-2.28-7.15,64.57,64.57,0,0,0-3.82-8.36,46,46,0,0,0-10.21-13.15,21.91,21.91,0,0,0-2.28-1.77c-.35-.24-.66-.49-1-.68L377,378a11.66,11.66,0,0,0-1.64-.86,55.56,55.56,0,0,1,5.51,4.09,49,49,0,0,1,10,13.12,68.89,68.89,0,0,1,3.83,8.28,72.7,72.7,0,0,1,2.38,7.07c.57,2,.94,3.73,1.18,4.89A12.1,12.1,0,0,0,398.57,416.36Z" style="fill:#263238"></path></g></svg>